<svg xmlns="http://www.w3.org/2000/svg" width="19" height="21" fill="none"><path stroke="#D2D2D2" stroke-linejoin="round" stroke-width="1.8" d="M4.4 1.6a.9.9 0 0 0-.72.36l-2.4 3.2a.9.9 0 0 0-.18.54v11.2a2.5 2.5 0 0 0 2.5 2.5h11.2a2.5 2.5 0 0 0 2.5-2.5V5.7a.9.9 0 0 0-.18-.54l-2.4-3.2A.9.9 0 0 0 14 1.6H4.4ZM2 5.7h14.4"/><mask id="a" width="11" height="5" x="4" y="8.9" fill="#000" maskUnits="userSpaceOnUse"><path fill="#fff" d="M4 8.9h11v5H4z"/><path d="M12.4 8.9a3.2 3.2 0 1 1-6.4 0"/></mask><path fill="#D2D2D2" d="M9.2 12.1v1.8-1.8Zm1.4-3.2a1.4 1.4 0 0 1-.41.99l2.546 2.545A5 5 0 0 0 14.2 8.9h-3.6Zm-.41.99a1.4 1.4 0 0 1-.99.41v3.6a5 5 0 0 0 3.536-1.465L10.19 9.89Zm-.99.41a1.4 1.4 0 0 1-.99-.41l-2.546 2.545A5 5 0 0 0 9.2 13.9v-3.6Zm-.99-.41a1.4 1.4 0 0 1-.41-.99H4.2a5 5 0 0 0 1.464 3.535L8.21 9.89Z" mask="url(#a)"/></svg>