<svg xmlns="http://www.w3.org/2000/svg" width="40" height="41" fill="none"><path fill="#D2D2D2" d="M19.406 13.687a7.5 7.5 0 0 1 14.235 4.36 7.673 7.673 0 0 1-1.703 3.61 6.813 6.813 0 0 0-3.813-1.157 6.643 6.643 0 0 0-2.234.375 10.672 10.672 0 0 0-6.485-7.188Z" opacity=".2"/><path fill="#D2D2D2" d="M15.625 11.75c1.066.003 2.127.145 3.156.422a9.2 9.2 0 0 1 1.469-1.797L18.78 8.25a1.236 1.236 0 0 1 .297-1.734 1.25 1.25 0 0 1 1.75.296l1.484 2.125A8.594 8.594 0 0 1 26.515 8l.454-2.547a1.253 1.253 0 1 1 2.468.438l-.453 2.546a8.703 8.703 0 0 1 3.64 2.313l2.126-1.484a1.25 1.25 0 0 1 1.734.312 1.236 1.236 0 0 1-.297 1.735l-2.125 1.484A8.61 8.61 0 0 1 35 17.016l2.547.453a1.25 1.25 0 0 1-.219 2.484h-.219l-2.547-.453a8.174 8.174 0 0 1-.921 1.938A8.11 8.11 0 0 1 28.125 35.5h-12.5a11.875 11.875 0 1 1 0-23.75Zm16.781 6.11v-.063a6.187 6.187 0 0 0-1.015-4.61v-.03h-.016a6.266 6.266 0 0 0-4-2.563h-.078a6.234 6.234 0 0 0-4.547.969l-.078.062-.063.047a5.843 5.843 0 0 0-1.453 1.453 11.969 11.969 0 0 1 5.563 6.25 8.393 8.393 0 0 1 1.406-.125 8.218 8.218 0 0 1 3.453.766 6.249 6.249 0 0 0 .828-2.157ZM15.625 33h12.5a5.625 5.625 0 1 0 0-11.25 6.3 6.3 0 0 0-.766.047c.095.605.142 1.216.14 1.828a1.25 1.25 0 0 1-2.5 0A9.375 9.375 0 1 0 15.626 33Z"/></svg>