<svg xmlns="http://www.w3.org/2000/svg" width="40" height="40" fill="none"><path fill="#000" d="M14.11 20.375a10.608 10.608 0 0 1 7.109-7.39h.015c.016-.157.016-.313.016-.47A10 10 0 0 0 13.5 2.75c.163.739.247 1.493.25 2.25a10.015 10.015 0 0 1-10 10 10.669 10.669 0 0 1-2.25-.25 10.016 10.016 0 0 0 5.844 6.953A6.828 6.828 0 0 1 11.875 20a6.64 6.64 0 0 1 2.234.375Z" opacity=".2"/><path fill="#000" d="M24.375 11.25c-.649.005-1.296.057-1.937.156a11.219 11.219 0 0 0-8.657-9.875 1.25 1.25 0 0 0-1.5 1.5c.144.647.218 1.307.22 1.97a8.75 8.75 0 0 1-8.75 8.75 9.156 9.156 0 0 1-1.97-.22 1.25 1.25 0 0 0-1.5 1.5 11.235 11.235 0 0 0 5.047 7.032A8.125 8.125 0 0 0 11.875 35h12.5a11.875 11.875 0 0 0 0-23.75Zm-21.031 5h.406A11.266 11.266 0 0 0 15 5v-.422a8.687 8.687 0 0 1 4.984 7.516 11.924 11.924 0 0 0-6.703 6.781 8.391 8.391 0 0 0-1.406-.125 8.093 8.093 0 0 0-4.687 1.5 8.734 8.734 0 0 1-3.844-4ZM24.375 32.5h-12.5a5.625 5.625 0 0 1 0-11.25 6.3 6.3 0 0 1 .766.047 11.706 11.706 0 0 0-.14 1.828 1.25 1.25 0 0 0 2.5 0 9.375 9.375 0 1 1 9.374 9.375Z"/></svg>