<svg xmlns="http://www.w3.org/2000/svg" width="20" height="19" fill="none"><path stroke="#D2D2D2" stroke-linejoin="round" stroke-width="2" d="m9.778 3.115-.071-.073A5.03 5.03 0 0 0 6.094 1.5 5.03 5.03 0 0 0 2.48 3.042 5.294 5.294 0 0 0 1 6.725c0 1.375.53 2.7 1.481 3.683l.789.814 5.79 5.974a1 1 0 0 0 1.436 0l5.79-5.974.788-.814a5.235 5.235 0 0 0 1.098-1.694 5.34 5.34 0 0 0 0-3.979 5.235 5.235 0 0 0-1.098-1.693 5.087 5.087 0 0 0-1.653-1.14 4.983 4.983 0 0 0-3.92 0 5.087 5.087 0 0 0-1.653 1.14l-.07.073Z"/></svg>