<svg width="19" height="20" viewBox="0 0 19 20" fill="none" xmlns="http://www.w3.org/2000/svg">
<mask id="path-1-outside-1_90_39" maskUnits="userSpaceOnUse" x="0" y="11.1665" width="19" height="8" fill="black">
<rect fill="white" y="11.1665" width="19" height="8"/>
<path d="M16.2222 18.4998V16.7221C16.2222 15.7791 15.8476 14.8747 15.1808 14.2079C14.514 13.5411 13.6097 13.1665 12.6667 13.1665H5.55556C4.61256 13.1665 3.70819 13.5411 3.0414 14.2079C2.3746 14.8747 2 15.7791 2 16.7221V18.4998"/>
</mask>
<path d="M12.6667 13.1665V11.3665V13.1665ZM5.55556 13.1665V11.3665V13.1665ZM2 16.7221H0.2H2ZM18.0222 18.4998V16.7221H14.4222V18.4998H18.0222ZM18.0222 16.7221C18.0222 15.3017 17.458 13.9395 16.4536 12.9351L13.908 15.4807C14.2373 15.8099 14.4222 16.2565 14.4222 16.7221H18.0222ZM16.4536 12.9351C15.4493 11.9308 14.087 11.3665 12.6667 11.3665V14.9665C13.1323 14.9665 13.5788 15.1515 13.908 15.4807L16.4536 12.9351ZM12.6667 11.3665H5.55556V14.9665H12.6667V11.3665ZM5.55556 11.3665C4.13517 11.3665 2.77297 11.9307 1.76861 12.9351L4.31419 15.4807C4.64342 15.1515 5.08995 14.9665 5.55556 14.9665V11.3665ZM1.76861 12.9351C0.764244 13.9395 0.2 15.3017 0.2 16.7221H3.8C3.8 16.2565 3.98496 15.8099 4.31419 15.4807L1.76861 12.9351ZM0.2 16.7221V18.4998H3.8V16.7221H0.2Z" fill="#1F2937" mask="url(#path-1-outside-1_90_39)"/>
<path d="M9.11122 10.5111C11.572 10.5111 13.5668 8.51629 13.5668 6.05556C13.5668 3.59482 11.572 1.6 9.11122 1.6C6.65048 1.6 4.65566 3.59482 4.65566 6.05556C4.65566 8.51629 6.65048 10.5111 9.11122 10.5111Z" stroke="#1F2937" stroke-width="1.8" stroke-linejoin="round"/>
</svg>
