<svg xmlns="http://www.w3.org/2000/svg" width="19" height="20" fill="none"><path fill="#0D0D0D" d="M1 1.5h16v18H1z"/><mask id="a" width="19" height="8" x="0" y="11.167" fill="#000" maskUnits="userSpaceOnUse"><path fill="#fff" d="M0 11.167h19v8H0z"/><path d="M16.222 18.5v-1.778a3.556 3.556 0 0 0-3.555-3.555H5.556A3.556 3.556 0 0 0 2 16.722V18.5"/></mask><path fill="#D2D2D2" d="M12.667 13.167v-1.8 1.8Zm-7.111 0v-1.8 1.8ZM2 16.722H.2 2ZM18.022 18.5v-1.778h-3.6V18.5h3.6Zm0-1.778c0-1.42-.564-2.782-1.568-3.787l-2.546 2.546c.33.33.514.776.514 1.241h3.6Zm-1.568-3.787a5.355 5.355 0 0 0-3.787-1.568v3.6c.465 0 .912.185 1.241.514l2.546-2.546Zm-3.787-1.568H5.556v3.6h7.11v-3.6Zm-7.111 0c-1.42 0-2.783.564-3.787 1.568l2.545 2.546c.33-.33.776-.514 1.242-.514v-3.6Zm-3.787 1.568A5.355 5.355 0 0 0 .2 16.722h3.6c0-.465.185-.912.514-1.241L1.77 12.935ZM.2 16.722V18.5h3.6v-1.778H.2Z" mask="url(#a)"/><path stroke="#D2D2D2" stroke-linejoin="round" stroke-width="1.8" d="M9.111 10.511a4.456 4.456 0 1 0 0-8.911 4.456 4.456 0 0 0 0 8.911Z"/></svg>