<svg xmlns="http://www.w3.org/2000/svg" width="19" height="20" fill="none"><mask id="a" width="19" height="8" x="0" y="11.166" fill="#000" maskUnits="userSpaceOnUse"><path fill="#fff" d="M0 11.166h19v8H0z"/><path d="M16.222 18.5v-1.778a3.556 3.556 0 0 0-3.555-3.556H5.556A3.556 3.556 0 0 0 2 16.723V18.5"/></mask><path fill="#1F2937" d="M12.667 13.166v-1.8 1.8Zm-7.111 0v-1.8 1.8ZM2 16.723H.2 2ZM18.022 18.5v-1.778h-3.6V18.5h3.6Zm0-1.778c0-1.42-.564-2.783-1.568-3.787l-2.546 2.546c.33.329.514.775.514 1.241h3.6Zm-1.568-3.787a5.356 5.356 0 0 0-3.787-1.569v3.6c.465 0 .912.186 1.241.515l2.546-2.546Zm-3.787-1.569H5.556v3.6h7.11v-3.6Zm-7.111 0c-1.42 0-2.783.565-3.787 1.57l2.545 2.545c.33-.33.776-.514 1.242-.514v-3.6Zm-3.787 1.57A5.356 5.356 0 0 0 .2 16.721h3.6c0-.466.185-.912.514-1.241L1.77 12.935ZM.2 16.721V18.5h3.6v-1.778H.2Z" mask="url(#a)"/><path stroke="#1F2937" stroke-linejoin="round" stroke-width="1.8" d="M9.111 10.511a4.456 4.456 0 1 0 0-8.911 4.456 4.456 0 0 0 0 8.911Z"/></svg>