<svg xmlns="http://www.w3.org/2000/svg" width="28" height="29" fill="none"><g clip-path="url(#a)"><path stroke="#12113D" d="m20.68 24.718-.013-.001h-.013a.666.666 0 0 1-.306-.073l-5.946-3.113-.232-.122-.232.122-5.95 3.115h-.001a.668.668 0 0 1-.967-.707l-.491-.087.491.087 1.167-6.568.046-.261-.19-.185-4.804-4.664a.666.666 0 0 1-.174-.308l-.483.12.483-.12a.667.667 0 0 1 .008-.352.667.667 0 0 1 .539-.449h.001l6.65-.969.261-.038.117-.237 2.928-5.985v-.001a.667.667 0 0 1 1.2 0l.003.004 2.963 5.973.117.235.259.038 6.65.968h.002a.666.666 0 0 1 .538.45.666.666 0 0 1-.166.66l-4.804 4.663-.19.185.046.261 1.167 6.569.001.006a.667.667 0 0 1-.264.665.667.667 0 0 1-.412.119Z"/><path stroke="#DEE5FF" d="m20.68 24.718-.013-.001h-.013a.666.666 0 0 1-.306-.073l-5.946-3.113-.232-.122-.232.122-5.95 3.115h-.001a.668.668 0 0 1-.967-.707l-.491-.087.491.087 1.167-6.568.046-.261-.19-.185-4.804-4.664a.666.666 0 0 1-.174-.308l-.483.12.483-.12a.667.667 0 0 1 .008-.352.667.667 0 0 1 .539-.449h.001l6.65-.969.261-.038.117-.237 2.928-5.985v-.001a.667.667 0 0 1 1.2 0l.003.004 2.963 5.973.117.235.259.038 6.65.968h.002a.666.666 0 0 1 .538.45.666.666 0 0 1-.166.66l-4.804 4.663-.19.185.046.261 1.167 6.569.001.006a.667.667 0 0 1-.264.665.667.667 0 0 1-.412.119Z"/><path stroke="#283385" d="m20.68 24.718-.013-.001h-.013a.666.666 0 0 1-.306-.073l-5.946-3.113-.232-.122-.232.122-5.95 3.115h-.001a.668.668 0 0 1-.967-.707l-.491-.087.491.087 1.167-6.568.046-.261-.19-.185-4.804-4.664a.666.666 0 0 1-.174-.308l-.483.12.483-.12a.667.667 0 0 1 .008-.352.667.667 0 0 1 .539-.449h.001l6.65-.969.261-.038.117-.237 2.928-5.985v-.001a.667.667 0 0 1 1.2 0l.003.004 2.963 5.973.117.235.259.038 6.65.968h.002a.666.666 0 0 1 .538.45.666.666 0 0 1-.166.66l-4.804 4.663-.19.185.046.261 1.167 6.569.001.006a.667.667 0 0 1-.264.665.667.667 0 0 1-.412.119Z"/><path stroke="#FE450D" d="m20.68 24.718-.013-.001h-.013a.666.666 0 0 1-.306-.073l-5.946-3.113-.232-.122-.232.122-5.95 3.115h-.001a.668.668 0 0 1-.967-.707l-.491-.087.491.087 1.167-6.568.046-.261-.19-.185-4.804-4.664a.666.666 0 0 1-.174-.308l-.483.12.483-.12a.667.667 0 0 1 .008-.352.667.667 0 0 1 .539-.449h.001l6.65-.969.261-.038.117-.237 2.928-5.985v-.001a.667.667 0 0 1 1.2 0l.003.004 2.963 5.973.117.235.259.038 6.65.968h.002a.666.666 0 0 1 .538.45.666.666 0 0 1-.166.66l-4.804 4.663-.19.185.046.261 1.167 6.569.001.006a.667.667 0 0 1-.264.665.667.667 0 0 1-.412.119Z"/></g><defs><clipPath id="a"><path fill="#fff" d="M0 .5h28v28H0z"/></clipPath></defs></svg>