<svg xmlns="http://www.w3.org/2000/svg" width="24" height="23" fill="none"><path fill="#12113D" d="m18.134 21.672-.023.5-.002-.5a.668.668 0 0 1-.305-.073h-.002l-5.946-3.114-.232-.121-.232.121-5.95 3.115a.667.667 0 0 1-.967-.706l-.492-.087.492.087 1.167-6.568.046-.262-.19-.185L.694 9.215a.667.667 0 0 1-.166-.66.667.667 0 0 1 .538-.449h.002l6.65-.968.261-.038.116-.237L11.023.878l.001-.002a.667.667 0 0 1 1.2 0l.002.004 2.964 5.974.116.234.26.038 6.65.969h.001a.666.666 0 0 1 .539.449.667.667 0 0 1-.166.66l-4.804 4.664-.19.185.046.26 1.167 6.57v.005a.666.666 0 0 1-.264.665.666.666 0 0 1-.411.119Z"/><path fill="#DEE5FF" d="m18.134 21.672-.023.5-.002-.5a.668.668 0 0 1-.305-.073h-.002l-5.946-3.114-.232-.121-.232.121-5.95 3.115a.667.667 0 0 1-.967-.706l-.492-.087.492.087 1.167-6.568.046-.262-.19-.185L.694 9.215a.667.667 0 0 1-.166-.66.667.667 0 0 1 .538-.449h.002l6.65-.968.261-.038.116-.237L11.023.878l.001-.002a.667.667 0 0 1 1.2 0l.002.004 2.964 5.974.116.234.26.038 6.65.969h.001a.666.666 0 0 1 .539.449.667.667 0 0 1-.166.66l-4.804 4.664-.19.185.046.26 1.167 6.57v.005a.666.666 0 0 1-.264.665.666.666 0 0 1-.411.119Z"/><path fill="#283385" d="m18.134 21.672-.023.5-.002-.5a.668.668 0 0 1-.305-.073h-.002l-5.946-3.114-.232-.121-.232.121-5.95 3.115a.667.667 0 0 1-.967-.706l-.492-.087.492.087 1.167-6.568.046-.262-.19-.185L.694 9.215a.667.667 0 0 1-.166-.66.667.667 0 0 1 .538-.449h.002l6.65-.968.261-.038.116-.237L11.023.878l.001-.002a.667.667 0 0 1 1.2 0l.002.004 2.964 5.974.116.234.26.038 6.65.969h.001a.666.666 0 0 1 .539.449.667.667 0 0 1-.166.66l-4.804 4.664-.19.185.046.26 1.167 6.57v.005a.666.666 0 0 1-.264.665.666.666 0 0 1-.411.119Z"/><path fill="#FE450D" d="m18.134 21.672-.023.5-.002-.5a.668.668 0 0 1-.305-.073h-.002l-5.946-3.114-.232-.121-.232.121-5.95 3.115a.667.667 0 0 1-.967-.706l-.492-.087.492.087 1.167-6.568.046-.262-.19-.185L.694 9.215a.667.667 0 0 1-.166-.66.667.667 0 0 1 .538-.449h.002l6.65-.968.261-.038.116-.237L11.023.878l.001-.002a.667.667 0 0 1 1.2 0l.002.004 2.964 5.974.116.234.26.038 6.65.969h.001a.666.666 0 0 1 .539.449.667.667 0 0 1-.166.66l-4.804 4.664-.19.185.046.26 1.167 6.57v.005a.666.666 0 0 1-.264.665.666.666 0 0 1-.411.119Z"/><path stroke="#12113D" d="m18.134 21.672-.023.5-.002-.5a.668.668 0 0 1-.305-.073h-.002l-5.946-3.114-.232-.121-.232.121-5.95 3.115a.667.667 0 0 1-.967-.706l-.492-.087.492.087 1.167-6.568.046-.262-.19-.185L.694 9.215a.667.667 0 0 1-.166-.66.667.667 0 0 1 .538-.449h.002l6.65-.968.261-.038.116-.237L11.023.878l.001-.002a.667.667 0 0 1 1.2 0l.002.004 2.964 5.974.116.234.26.038 6.65.969h.001a.666.666 0 0 1 .539.449.667.667 0 0 1-.166.66l-4.804 4.664-.19.185.046.26 1.167 6.57v.005a.666.666 0 0 1-.264.665.666.666 0 0 1-.411.119Z"/><path stroke="#DEE5FF" d="m18.134 21.672-.023.5-.002-.5a.668.668 0 0 1-.305-.073h-.002l-5.946-3.114-.232-.121-.232.121-5.95 3.115a.667.667 0 0 1-.967-.706l-.492-.087.492.087 1.167-6.568.046-.262-.19-.185L.694 9.215a.667.667 0 0 1-.166-.66.667.667 0 0 1 .538-.449h.002l6.65-.968.261-.038.116-.237L11.023.878l.001-.002a.667.667 0 0 1 1.2 0l.002.004 2.964 5.974.116.234.26.038 6.65.969h.001a.666.666 0 0 1 .539.449.667.667 0 0 1-.166.66l-4.804 4.664-.19.185.046.26 1.167 6.57v.005a.666.666 0 0 1-.264.665.666.666 0 0 1-.411.119Z"/><path stroke="#283385" d="m18.134 21.672-.023.5-.002-.5a.668.668 0 0 1-.305-.073h-.002l-5.946-3.114-.232-.121-.232.121-5.95 3.115a.667.667 0 0 1-.967-.706l-.492-.087.492.087 1.167-6.568.046-.262-.19-.185L.694 9.215a.667.667 0 0 1-.166-.66.667.667 0 0 1 .538-.449h.002l6.65-.968.261-.038.116-.237L11.023.878l.001-.002a.667.667 0 0 1 1.2 0l.002.004 2.964 5.974.116.234.26.038 6.65.969h.001a.666.666 0 0 1 .539.449.667.667 0 0 1-.166.66l-4.804 4.664-.19.185.046.26 1.167 6.57v.005a.666.666 0 0 1-.264.665.666.666 0 0 1-.411.119Z"/><path stroke="#FE450D" d="m18.134 21.672-.023.5-.002-.5a.668.668 0 0 1-.305-.073h-.002l-5.946-3.114-.232-.121-.232.121-5.95 3.115a.667.667 0 0 1-.967-.706l-.492-.087.492.087 1.167-6.568.046-.262-.19-.185L.694 9.215a.667.667 0 0 1-.166-.66.667.667 0 0 1 .538-.449h.002l6.65-.968.261-.038.116-.237L11.023.878l.001-.002a.667.667 0 0 1 1.2 0l.002.004 2.964 5.974.116.234.26.038 6.65.969h.001a.666.666 0 0 1 .539.449.667.667 0 0 1-.166.66l-4.804 4.664-.19.185.046.26 1.167 6.57v.005a.666.666 0 0 1-.264.665.666.666 0 0 1-.411.119Z"/></svg>