<svg width="41" height="30" viewBox="0 0 41 30" fill="none" xmlns="http://www.w3.org/2000/svg">
<path d="M0 2.5C0 1.11929 1.11929 0 2.5 0H37.7128C39.0935 0 40.2128 1.11929 40.2128 2.5V2.87234V3.24468C40.2128 4.62539 39.0935 5.74468 37.7128 5.74468H2.5C1.11929 5.74468 0 4.62539 0 3.24468V2.5Z" fill="#D2D2D2"/>
<path d="M0 2.5C0 1.11929 1.11929 0 2.5 0H37.7128C39.0935 0 40.2128 1.11929 40.2128 2.5V2.87234V3.24468C40.2128 4.62539 39.0935 5.74468 37.7128 5.74468H2.5C1.11929 5.74468 0 4.62539 0 3.24468V2.5Z" fill="#D2D2D2"/>
<path d="M0 2.5C0 1.11929 1.11929 0 2.5 0H37.7128C39.0935 0 40.2128 1.11929 40.2128 2.5V2.87234V3.24468C40.2128 4.62539 39.0935 5.74468 37.7128 5.74468H2.5C1.11929 5.74468 0 4.62539 0 3.24468V2.5Z" fill="#D2D2D2"/>
<path d="M0 2.5C0 1.11929 1.11929 0 2.5 0H37.7128C39.0935 0 40.2128 1.11929 40.2128 2.5V2.87234V3.24468C40.2128 4.62539 39.0935 5.74468 37.7128 5.74468H2.5C1.11929 5.74468 0 4.62539 0 3.24468V2.5Z" fill="#D2D2D2"/>
<path d="M0 14.6277C0 13.247 1.11929 12.1277 2.5 12.1277H37.7128C39.0935 12.1277 40.2128 13.247 40.2128 14.6277V15V15.3724C40.2128 16.7531 39.0935 17.8724 37.7128 17.8724H2.5C1.11929 17.8724 0 16.7531 0 15.3724V14.6277Z" fill="#D2D2D2"/>
<path d="M0 14.6277C0 13.247 1.11929 12.1277 2.5 12.1277H37.7128C39.0935 12.1277 40.2128 13.247 40.2128 14.6277V15V15.3724C40.2128 16.7531 39.0935 17.8724 37.7128 17.8724H2.5C1.11929 17.8724 0 16.7531 0 15.3724V14.6277Z" fill="#D2D2D2"/>
<path d="M0 14.6277C0 13.247 1.11929 12.1277 2.5 12.1277H37.7128C39.0935 12.1277 40.2128 13.247 40.2128 14.6277V15V15.3724C40.2128 16.7531 39.0935 17.8724 37.7128 17.8724H2.5C1.11929 17.8724 0 16.7531 0 15.3724V14.6277Z" fill="#D2D2D2"/>
<path d="M0 14.6277C0 13.247 1.11929 12.1277 2.5 12.1277H37.7128C39.0935 12.1277 40.2128 13.247 40.2128 14.6277V15V15.3724C40.2128 16.7531 39.0935 17.8724 37.7128 17.8724H2.5C1.11929 17.8724 0 16.7531 0 15.3724V14.6277Z" fill="#D2D2D2"/>
<path d="M0 26.7554C0 25.3747 1.11929 24.2554 2.5 24.2554H37.7128C39.0935 24.2554 40.2128 25.3747 40.2128 26.7554V27.1277V27.5001C40.2128 28.8808 39.0935 30.0001 37.7128 30.0001H2.5C1.11929 30.0001 0 28.8808 0 27.5001V26.7554Z" fill="#D2D2D2"/>
<path d="M0 26.7554C0 25.3747 1.11929 24.2554 2.5 24.2554H37.7128C39.0935 24.2554 40.2128 25.3747 40.2128 26.7554V27.1277V27.5001C40.2128 28.8808 39.0935 30.0001 37.7128 30.0001H2.5C1.11929 30.0001 0 28.8808 0 27.5001V26.7554Z" fill="#D2D2D2"/>
<path d="M0 26.7554C0 25.3747 1.11929 24.2554 2.5 24.2554H37.7128C39.0935 24.2554 40.2128 25.3747 40.2128 26.7554V27.1277V27.5001C40.2128 28.8808 39.0935 30.0001 37.7128 30.0001H2.5C1.11929 30.0001 0 28.8808 0 27.5001V26.7554Z" fill="#D2D2D2"/>
<path d="M0 26.7554C0 25.3747 1.11929 24.2554 2.5 24.2554H37.7128C39.0935 24.2554 40.2128 25.3747 40.2128 26.7554V27.1277V27.5001C40.2128 28.8808 39.0935 30.0001 37.7128 30.0001H2.5C1.11929 30.0001 0 28.8808 0 27.5001V26.7554Z" fill="#D2D2D2"/>
</svg>
