<svg xmlns="http://www.w3.org/2000/svg" width="41" height="30" fill="none"><path fill="#393939" d="M0 2.5A2.5 2.5 0 0 1 2.5 0h35.213a2.5 2.5 0 0 1 2.5 2.5v.745a2.5 2.5 0 0 1-2.5 2.5H2.5a2.5 2.5 0 0 1-2.5-2.5V2.5Z"/><path fill="#393939" d="M0 2.5A2.5 2.5 0 0 1 2.5 0h35.213a2.5 2.5 0 0 1 2.5 2.5v.745a2.5 2.5 0 0 1-2.5 2.5H2.5a2.5 2.5 0 0 1-2.5-2.5V2.5Z"/><path fill="#393939" d="M0 2.5A2.5 2.5 0 0 1 2.5 0h35.213a2.5 2.5 0 0 1 2.5 2.5v.745a2.5 2.5 0 0 1-2.5 2.5H2.5a2.5 2.5 0 0 1-2.5-2.5V2.5Z"/><path fill="#393939" d="M0 2.5A2.5 2.5 0 0 1 2.5 0h35.213a2.5 2.5 0 0 1 2.5 2.5v.745a2.5 2.5 0 0 1-2.5 2.5H2.5a2.5 2.5 0 0 1-2.5-2.5V2.5Zm0 12.128a2.5 2.5 0 0 1 2.5-2.5h35.213a2.5 2.5 0 0 1 2.5 2.5v.744a2.5 2.5 0 0 1-2.5 2.5H2.5a2.5 2.5 0 0 1-2.5-2.5v-.744Z"/><path fill="#393939" d="M0 14.628a2.5 2.5 0 0 1 2.5-2.5h35.213a2.5 2.5 0 0 1 2.5 2.5v.744a2.5 2.5 0 0 1-2.5 2.5H2.5a2.5 2.5 0 0 1-2.5-2.5v-.744Z"/><path fill="#393939" d="M0 14.628a2.5 2.5 0 0 1 2.5-2.5h35.213a2.5 2.5 0 0 1 2.5 2.5v.744a2.5 2.5 0 0 1-2.5 2.5H2.5a2.5 2.5 0 0 1-2.5-2.5v-.744Z"/><path fill="#393939" d="M0 14.628a2.5 2.5 0 0 1 2.5-2.5h35.213a2.5 2.5 0 0 1 2.5 2.5v.744a2.5 2.5 0 0 1-2.5 2.5H2.5a2.5 2.5 0 0 1-2.5-2.5v-.744Zm0 12.127a2.5 2.5 0 0 1 2.5-2.5h35.213a2.5 2.5 0 0 1 2.5 2.5v.745a2.5 2.5 0 0 1-2.5 2.5H2.5A2.5 2.5 0 0 1 0 27.5v-.745Z"/><path fill="#393939" d="M0 26.755a2.5 2.5 0 0 1 2.5-2.5h35.213a2.5 2.5 0 0 1 2.5 2.5v.745a2.5 2.5 0 0 1-2.5 2.5H2.5A2.5 2.5 0 0 1 0 27.5v-.745Z"/><path fill="#393939" d="M0 26.755a2.5 2.5 0 0 1 2.5-2.5h35.213a2.5 2.5 0 0 1 2.5 2.5v.745a2.5 2.5 0 0 1-2.5 2.5H2.5A2.5 2.5 0 0 1 0 27.5v-.745Z"/><path fill="#393939" d="M0 26.755a2.5 2.5 0 0 1 2.5-2.5h35.213a2.5 2.5 0 0 1 2.5 2.5v.745a2.5 2.5 0 0 1-2.5 2.5H2.5A2.5 2.5 0 0 1 0 27.5v-.745Z"/></svg>