<svg width="313" height="79" viewBox="0 0 313 79" fill="none" xmlns="http://www.w3.org/2000/svg">
<g clip-path="url(#clip0_88_337)">
<g clip-path="url(#clip1_88_337)">
<g clip-path="url(#clip2_88_337)">
<g clip-path="url(#clip3_88_337)">
<g clip-path="url(#clip4_88_337)">
<path d="M57.8365 39.7751H44.9013C44.4424 39.7751 44.0703 40.1382 44.0703 40.586V48.7159C44.0703 49.1637 44.4424 49.5268 44.9013 49.5268H57.8365C58.2954 49.5268 58.6675 49.1637 58.6675 48.7159V40.5864C58.6675 40.1382 58.2954 39.7751 57.8365 39.7751ZM57.0056 47.9054H45.7323V41.3973H57.0052L57.0056 47.9054Z" fill="#FE5926"/>
<path d="M64.2652 30.0376L60.711 26.4976V22.9583C60.711 22.5105 60.339 22.1475 59.8801 22.1475H30.7795C30.3206 22.1475 29.9485 22.5105 29.9485 22.9583V26.4976L26.3943 30.0376C26.242 30.1892 26.1567 30.3927 26.1567 30.6053V33.6914C26.1567 35.2784 27.0242 36.6713 28.3202 37.4424V52.0415C28.3202 52.4893 28.6923 52.8524 29.1512 52.8524H33.3429C33.3472 52.8524 33.3507 52.8513 33.355 52.8513C33.3592 52.8513 33.3627 52.8524 33.367 52.8524C33.8259 52.8524 34.198 52.4893 34.198 52.0415V41.3973H40.1555V52.0415C40.1555 52.4893 40.5276 52.8524 40.9865 52.8524H61.3378C61.7967 52.8524 62.1688 52.4893 62.1688 52.0415V37.5378C63.5582 36.7897 64.5016 35.3461 64.5016 33.6914V30.6053C64.5024 30.3927 64.4171 30.1892 64.2652 30.0376ZM31.6108 23.7696H59.0487V26.018H31.6108V23.7696ZM60.5076 51.2303H41.8182V40.5865C41.8182 40.1387 41.4462 39.7756 40.9873 39.7756H33.3674C32.9085 39.7756 32.5364 40.1387 32.5364 40.5865V51.2307H29.983V38.0324C30.2027 38.065 30.4275 38.0816 30.6566 38.0816C32.1686 38.0816 33.5084 37.3502 34.3251 36.2307C35.1413 37.3502 36.4816 38.0816 37.9936 38.0816C39.5055 38.0816 40.8454 37.3502 41.662 36.2307C42.4783 37.3502 43.8186 38.0816 45.3305 38.0816C46.8425 38.0816 48.1828 37.3502 48.999 36.2307C49.8153 37.3498 51.1555 38.0816 52.6675 38.0816C54.1795 38.0816 55.5194 37.3502 56.336 36.2307C57.1522 37.3502 58.4925 38.0816 60.0045 38.0816C60.175 38.0816 60.3432 38.0714 60.5091 38.0532V51.2303H60.5076ZM62.84 33.691C62.84 35.2175 61.5672 36.4595 60.0029 36.4595C58.4386 36.4595 57.1658 35.2175 57.1658 33.691C57.1658 33.2432 56.7937 32.8802 56.3348 32.8802C55.8759 32.8802 55.5039 33.2432 55.5039 33.691C55.5039 35.2175 54.231 36.4595 52.6667 36.4595C51.1024 36.4595 49.8296 35.2175 49.8296 33.691C49.8296 33.2432 49.4575 32.8802 48.9986 32.8802C48.5397 32.8802 48.1677 33.2432 48.1677 33.691C48.1677 35.2175 46.8948 36.4595 45.3301 36.4595C43.7655 36.4595 42.493 35.2175 42.493 33.691C42.493 33.2432 42.1209 32.8802 41.662 32.8802C41.2031 32.8802 40.8311 33.2432 40.8311 33.691C40.8311 35.2175 39.5582 36.4595 37.994 36.4595C36.4297 36.4595 35.1568 35.2175 35.1568 33.691C35.1568 33.2432 34.7848 32.8802 34.3259 32.8802C33.867 32.8802 33.4949 33.2432 33.4949 33.691C33.4949 35.2175 32.222 36.4595 30.6578 36.4595C29.0935 36.4595 27.8206 35.2175 27.8206 33.691V30.9358L31.1302 27.6394H59.5309L62.8404 30.9358L62.84 33.691Z" fill="#FE5926"/>
</g>
</g>
<path d="M14.697 25.6401L13.6015 28.9809L7.75988 27.1565L8.85539 23.8158L9.47169 24.0083L8.59981 26.6672L10.509 27.2634L11.3093 24.8237L11.9256 25.0159L11.1253 27.4559L13.2085 28.1064L14.0807 25.4475L14.697 25.6401ZM17.6038 16.3964L17.1489 16.0132L19.5746 13.2732L20.0291 13.656L17.6038 16.3964ZM29.1812 3.34436C29.6039 3.14075 30.0961 2.99398 30.6574 2.90403L30.7386 3.59082C30.2079 3.68305 29.7716 3.81131 29.4305 3.97562C29.0495 4.15909 28.7673 4.39387 28.5839 4.67996C28.3975 4.96474 28.3673 5.23199 28.4937 5.48203C28.5633 5.61939 28.6681 5.72168 28.8085 5.7889C28.9486 5.85644 29.1054 5.89021 29.2784 5.89119C29.4535 5.89119 29.6465 5.88242 29.8574 5.86488C30.0694 5.84475 30.2817 5.81812 30.4947 5.78532C30.7067 5.75058 30.9237 5.73402 31.1466 5.73499C31.3663 5.73499 31.5719 5.75155 31.7636 5.78435C31.9546 5.82007 32.1343 5.89963 32.3027 6.02302C32.4704 6.14447 32.6065 6.30878 32.7114 6.51596C32.7839 6.65916 32.8322 6.81276 32.8561 6.97707C32.8831 7.14236 32.8771 7.32096 32.8385 7.51287C32.8019 7.70413 32.7303 7.8915 32.6235 8.07529C32.5157 8.25747 32.3576 8.43964 32.1486 8.62213C31.938 8.8056 31.6831 8.96927 31.3832 9.11377C31.0837 9.25827 30.7929 9.36121 30.5104 9.42258C30.2282 9.48396 29.9004 9.52877 29.5273 9.5567L29.4358 8.82769C30.2012 8.7504 30.7703 8.62181 31.1433 8.44191C31.536 8.25259 31.8162 8.02139 31.9839 7.74797C32.1526 7.4765 32.1716 7.21185 32.0415 6.95434C31.9553 6.78418 31.8262 6.66338 31.6541 6.59194C31.4814 6.51856 31.2881 6.48543 31.0744 6.49225C30.8614 6.5007 30.6318 6.52245 30.3852 6.55687C30.1416 6.59259 29.8951 6.62214 29.6458 6.64617C29.3972 6.67183 29.1603 6.6767 28.9346 6.66014C28.709 6.64358 28.498 6.57538 28.3017 6.45588C28.1064 6.33801 27.95 6.16298 27.8325 5.93048C27.7277 5.72363 27.6784 5.50151 27.6844 5.26511C27.6914 5.02579 27.7496 4.79166 27.8588 4.56338C27.9676 4.3351 28.1353 4.11331 28.3623 3.89802C28.5909 3.68207 28.8638 3.4973 29.1812 3.34436ZM41.7194 0.816362L41.6941 0.185419L46.5227 0L46.548 0.630943L44.4988 0.709852L44.7144 6.05907L43.9813 6.08732L43.7656 0.737778L41.7194 0.816362ZM60.1906 2.91215C60.5707 3.05438 60.8998 3.25148 61.1773 3.50347C61.4545 3.75741 61.6675 4.04771 61.8166 4.37406C61.9634 4.69976 62.0362 5.06346 62.0346 5.46514C62.0342 5.86975 61.951 6.28378 61.7847 6.7069C61.5604 7.27744 61.2439 7.7418 60.8352 8.09997C60.4296 8.45685 59.9727 8.67896 59.4645 8.76631C58.9574 8.85626 58.4426 8.80366 57.9198 8.60785C57.577 8.47958 57.2722 8.29611 57.0056 8.05776C56.7384 7.82103 56.5224 7.54144 56.358 7.21867C56.1956 6.89654 56.1114 6.52278 56.1054 6.09739C56.1011 5.67492 56.1893 5.23264 56.371 4.77088C56.5414 4.33769 56.765 3.96686 57.0425 3.65902C57.3201 3.3515 57.6269 3.11932 57.963 2.96313C58.2988 2.80888 58.6582 2.72608 59.0419 2.71471C59.4256 2.70335 59.8083 2.76927 60.1906 2.91215ZM59.9261 3.48626C59.6802 3.39404 59.4272 3.3502 59.167 3.35475C58.9071 3.35929 58.6482 3.41158 58.391 3.51159C58.1357 3.61258 57.8931 3.78663 57.6632 4.03375C57.4356 4.28152 57.2502 4.58676 57.1078 4.94948C56.9707 5.29823 56.8965 5.6405 56.8855 5.97626C56.8752 6.31008 56.9204 6.61045 57.0219 6.87738C57.1231 7.1443 57.2752 7.37811 57.4782 7.57879C57.6805 7.78174 57.9221 7.93599 58.2033 8.04087C58.3953 8.11296 58.5943 8.15518 58.8003 8.16752C59.0056 8.1818 59.2163 8.16135 59.4326 8.10582C59.6485 8.05029 59.8539 7.95937 60.0479 7.83305C60.2442 7.7077 60.4306 7.53235 60.607 7.30699C60.783 7.08131 60.9311 6.81666 61.0509 6.51206C61.172 6.20357 61.2429 5.90547 61.2639 5.61712C61.2838 5.33103 61.2619 5.07645 61.198 4.85368C61.1317 4.62995 61.0342 4.4257 60.9055 4.24125C60.7763 4.05648 60.6299 3.90224 60.4652 3.77819C60.2978 3.65544 60.1181 3.55803 59.9261 3.48626ZM74.2875 14.9036C74.1401 15.0439 73.984 15.1595 73.8186 15.2508C73.6529 15.342 73.4739 15.4086 73.2809 15.4505C73.0895 15.4911 72.8862 15.4888 72.6709 15.4433C72.4552 15.4011 72.2413 15.3138 72.0286 15.1816L71.3527 18.1876L70.7804 17.6151L71.4476 14.7121L70.6176 13.8824L68.7887 15.6242L68.2742 15.1098L72.6632 10.929L74.2376 12.5029C74.3102 12.5754 74.3727 12.6426 74.425 12.7043C74.4805 12.766 74.5444 12.8514 74.6167 12.9608C74.6905 13.0686 74.7488 13.1715 74.7914 13.2696C74.8306 13.368 74.8582 13.4849 74.8739 13.621C74.8925 13.7574 74.8862 13.8898 74.8546 14.0194C74.8233 14.1487 74.7597 14.2909 74.6639 14.4455C74.5714 14.6 74.4459 14.7526 74.2875 14.9036ZM72.7171 11.8824L71.0809 13.4411L71.8203 14.1805C71.9225 14.2824 72.016 14.3698 72.1012 14.4425C72.1877 14.514 72.2995 14.587 72.4363 14.662C72.5731 14.7367 72.7048 14.7819 72.8313 14.7971C72.9577 14.8124 73.0998 14.7936 73.2569 14.7403C73.414 14.687 73.5671 14.5896 73.7158 14.448C73.8203 14.3484 73.9022 14.2448 73.9614 14.137C74.019 14.0308 74.0546 13.9321 74.0682 13.8405C74.0835 13.7476 74.0815 13.6531 74.0626 13.5567C74.0433 13.4602 74.017 13.3752 73.9834 13.3014C73.9501 13.2277 73.9062 13.1517 73.8526 13.0732C73.7987 12.9946 73.7518 12.9322 73.7118 12.8858C73.6732 12.8413 73.629 12.7942 73.5797 12.7445L72.7171 11.8824ZM77.2775 29.5758L75.995 26.2989L81.7248 24.1635L83.0074 27.4403L82.4027 27.6657L81.3821 25.0575L79.5092 25.7553L80.446 28.1486L79.8413 28.3739L78.9045 25.9807L76.8612 26.7422L77.8822 29.3504L77.2775 29.5758ZM10.6328 52.5628L9.52427 49.1889L15.4251 47.3428L16.5336 50.7171L15.911 50.9116L15.0285 48.2254L13.1003 48.8284L13.91 51.2928L13.2873 51.4876L12.4777 49.0233L10.3729 49.6818L11.2554 52.368L10.6328 52.5628ZM18.2245 59.9533L18.6814 59.5678L21.1333 62.3371L20.6764 62.7225L18.2245 59.9533ZM32.8009 66.4033C33.2272 66.6088 33.6498 66.903 34.0681 67.2852L33.5553 67.7714C33.154 67.4142 32.7806 67.1521 32.4355 66.9855C32.0505 66.8001 31.6841 66.7222 31.336 66.7517C30.9876 66.7813 30.75 66.9219 30.6225 67.1735C30.551 67.3148 30.5313 67.4606 30.5636 67.6113C30.5932 67.7626 30.6611 67.9061 30.7676 68.0419C30.8731 68.1795 30.9995 68.3247 31.1466 68.4776C31.2911 68.6316 31.4421 68.7813 31.6002 68.9274C31.758 69.0735 31.9054 69.2336 32.0418 69.4077C32.1793 69.5801 32.2917 69.7522 32.3796 69.9246C32.4684 70.0951 32.514 70.2834 32.516 70.489C32.517 70.6965 32.4651 70.904 32.36 71.1112C32.2864 71.2563 32.1902 71.3904 32.0711 71.5135C31.951 71.634 31.8005 71.7382 31.6198 71.8272C31.4391 71.9158 31.2405 71.974 31.0238 72.0022C30.8095 72.0311 30.5613 72.0188 30.2801 71.9649C30.0009 71.9123 29.7104 71.8129 29.4089 71.6678C29.1074 71.5223 28.8438 71.358 28.6185 71.1745C28.3959 70.9901 28.1576 70.7608 27.904 70.4867L28.4524 69.9672C28.9822 70.5192 29.4368 70.8865 29.8158 71.069C30.2105 71.2592 30.5726 71.3365 30.902 71.3002C31.2282 71.2648 31.4571 71.1177 31.5886 70.8582C31.6758 70.6858 31.6957 70.5101 31.6485 70.3309C31.6009 70.1513 31.5097 69.9808 31.3743 69.8191C31.2368 69.6567 31.0784 69.4898 30.8984 69.3187C30.7203 69.1485 30.545 68.9738 30.3719 68.7939C30.1969 68.6131 30.0481 68.4296 29.9253 68.2425C29.7999 68.0568 29.7257 67.8499 29.7027 67.6223C29.6791 67.3966 29.7263 67.1664 29.8451 66.9323C29.951 66.7231 30.1034 66.5488 30.3027 66.4088C30.5027 66.2669 30.7303 66.1682 30.9856 66.113C31.2405 66.0578 31.5267 66.0536 31.8435 66.1003C32.1603 66.1474 32.4794 66.2481 32.8009 66.4033ZM41.9497 69.4866L41.9756 68.8491L46.8542 69.0384L46.8282 69.6759L44.7587 69.5957L44.5384 75.0001L43.7989 74.9712L44.0192 69.5668L41.9497 69.4866ZM57.2505 66.5257C57.6349 66.3822 58.0189 66.3137 58.403 66.3205C58.7873 66.3273 59.1474 66.4056 59.4832 66.5553C59.8203 66.702 60.1281 66.928 60.4066 67.2333C60.6842 67.5366 60.9068 67.9019 61.0745 68.3292C61.3008 68.906 61.3843 69.4632 61.3251 70.0009C61.2679 70.5377 61.0785 71.0063 60.7567 71.406C60.4359 71.808 60.0119 72.1074 59.4848 72.3042C59.1377 72.4338 58.7813 72.4974 58.4156 72.4955C58.0522 72.4926 57.6971 72.424 57.3507 72.2899C57.0063 72.1548 56.6845 71.9295 56.3853 71.6135C56.0861 71.2976 55.8449 70.9066 55.6622 70.4409C55.4908 70.0032 55.4029 69.5772 55.399 69.1625C55.395 68.7478 55.4655 68.3715 55.6099 68.0331C55.755 67.6967 55.9683 67.3976 56.2492 67.1352C56.5304 66.8732 56.8638 66.6699 57.2505 66.5257ZM57.4489 67.1313C57.201 67.2239 56.981 67.358 56.7893 67.5337C56.5946 67.708 56.4362 67.9175 56.3141 68.1617C56.191 68.4091 56.1287 68.7004 56.1277 69.0362C56.1267 69.3716 56.1986 69.7239 56.343 70.0928C56.4808 70.4439 56.6618 70.7485 56.8865 71.0066C57.1088 71.2657 57.3507 71.4622 57.6116 71.596C57.8725 71.7298 58.1487 71.8058 58.4402 71.8239C58.7317 71.8421 59.0199 71.7983 59.3051 71.6918C59.4995 71.619 59.6785 71.52 59.8422 71.394C60.007 71.27 60.15 71.116 60.2722 70.9316C60.3963 70.7465 60.4891 70.5419 60.5504 70.3179C60.6106 70.0967 60.6283 69.8428 60.6033 69.5561C60.5813 69.2706 60.5098 68.9738 60.389 68.665C60.2662 68.3526 60.1131 68.0828 59.9291 67.8555C59.7467 67.6256 59.5537 67.4479 59.3507 67.3226C59.1474 67.1972 58.9337 67.1083 58.7091 67.0557C58.4842 67.0011 58.2668 66.9816 58.0575 66.9975C57.8459 67.0141 57.6432 67.0586 57.4489 67.1313ZM70.9547 58.7989C71.1035 58.9408 71.2273 59.0921 71.3261 59.2528C71.4253 59.4136 71.4975 59.5883 71.5434 59.7773C71.591 59.9643 71.595 60.1643 71.5551 60.377C71.5138 60.5913 71.428 60.8037 71.2972 61.0141L74.4233 61.6142L73.8456 62.1909L70.8253 61.6012L69.9877 62.4371L71.8339 64.1987L71.3118 64.7196L66.8812 60.4926L68.4729 58.9037C68.5457 58.8313 68.6136 58.768 68.6772 58.7138C68.7391 58.6582 68.8253 58.5923 68.9354 58.5163C69.0472 58.442 69.1537 58.3835 69.2549 58.341C69.3564 58.2988 69.4755 58.2676 69.613 58.2478C69.7537 58.228 69.8922 58.2319 70.0286 58.2592C70.1621 58.2868 70.3105 58.3455 70.4742 58.4352C70.6349 58.5251 70.795 58.6462 70.9547 58.7989ZM67.8685 60.4153L69.5201 61.9912L70.2672 61.2453C70.371 61.1421 70.4589 61.0479 70.5314 60.9632C70.6027 60.8768 70.6755 60.7654 70.7507 60.6287C70.8243 60.4903 70.8672 60.3595 70.8799 60.2354C70.8942 60.1101 70.8715 59.9708 70.8116 59.8172C70.7521 59.6636 70.6469 59.5152 70.4968 59.3717C70.3907 59.2707 70.2819 59.1924 70.17 59.1372C70.0599 59.0833 69.9571 59.0502 69.8616 59.0375C69.7644 59.0265 69.6659 59.0304 69.5661 59.0499C69.4675 59.071 69.381 59.0986 69.3065 59.133C69.2286 59.1674 69.1507 59.2126 69.0732 59.2684C68.9927 59.3243 68.9291 59.3723 68.8825 59.4123C68.8359 59.4525 68.788 59.4973 68.7384 59.5467L67.8685 60.4153ZM81.2802 48.8086L79.9807 52.117L74.1947 49.9533L75.4939 46.6447L76.1045 46.8733L75.0699 49.5071L76.9604 50.2141L77.9095 47.7978L78.5202 48.0261L77.5711 50.4423L79.6353 51.2142L80.6696 48.5804L81.2802 48.8086ZM7.65039 38.4408C7.65039 37.1653 8.71029 36.131 10.0178 36.131C11.3249 36.131 12.3848 37.1653 12.3848 38.4408C12.3848 39.7166 11.3249 40.7506 10.0178 40.7506C8.71029 40.7506 7.65039 39.7166 7.65039 38.4408ZM78.1757 38.4408C78.1757 37.1653 79.2356 36.131 80.5431 36.131C81.8503 36.131 82.9102 37.1653 82.9102 38.4408C82.9102 39.7166 81.8503 40.7506 80.5431 40.7506C79.2356 40.7506 78.1757 39.7166 78.1757 38.4408Z" fill="#FE5926"/>
</g>
</g>
<path d="M110.823 37.68H127.903V33.84H110.823V29.2H106.983V50H130.503V46.2H110.823V37.68ZM106.983 23.44V27.28H130.503V23.44H106.983ZM134.355 38V34.2H143.275V38H134.355ZM143.155 34.32H134.475V37.88H143.155V34.32ZM134.355 34.2V38H143.275V34.2H134.355ZM162.969 34.8H155.369C155.169 34.8 154.929 34.8 154.729 34.8C154.569 34.8 154.449 34.8 154.329 34.8C152.409 34.6 150.929 33 150.929 31.04C150.929 28.96 152.609 27.28 154.689 27.28H163.129C165.089 27.36 166.649 28.88 166.769 30.84H170.609C170.569 29.56 170.209 28.32 169.609 27.28C169.609 27.28 169.609 27.28 169.569 27.28C168.289 25.04 165.929 23.52 163.169 23.44C163.089 23.44 163.049 23.44 162.969 23.44C162.929 23.44 162.849 23.44 162.769 23.44H154.689C151.889 23.44 149.409 25 148.089 27.28C147.449 28.4 147.089 29.68 147.089 31.04C147.089 32.4 147.449 33.72 148.089 34.8C148.409 35.36 148.809 35.88 149.249 36.32C150.609 37.76 152.569 38.64 154.689 38.64H162.969C165.049 38.64 166.769 40.32 166.769 42.4C166.769 44.48 165.049 46.2 162.969 46.2H154.729C152.689 46.2 151.049 44.6 150.929 42.6H147.089C147.129 43.92 147.489 45.12 148.089 46.2C149.409 48.48 151.889 50 154.729 50H162.969C165.809 50 168.289 48.48 169.609 46.2C170.209 45.08 170.609 43.8 170.609 42.4C170.609 41.04 170.209 39.76 169.609 38.64C168.289 36.36 165.809 34.8 162.969 34.8ZM187.954 50V29.2H184.114V50H187.954ZM198.114 27.28V23.44H174.394V27.28H198.114ZM212.597 27.24C217.797 27.24 222.037 31.52 222.037 36.72C222.037 41.96 217.797 46.2 212.597 46.2C207.357 46.2 203.117 41.96 203.117 36.72C203.117 31.52 207.357 27.24 212.597 27.24ZM199.277 36.72C199.277 44.08 205.237 50 212.597 50C219.917 50 225.877 44.08 225.877 36.72C225.877 29.36 219.917 23.44 212.597 23.44C205.237 23.44 199.277 29.36 199.277 36.72ZM246.028 36.28L245.548 35.56C245.588 35.52 245.628 35.52 245.628 35.48C245.668 35.48 245.668 35.48 245.668 35.48C245.748 35.44 245.828 35.4 245.868 35.32H245.908C245.948 35.28 246.028 35.24 246.108 35.2C246.268 35.08 246.428 34.96 246.548 34.84C246.588 34.84 246.628 34.8 246.668 34.76C246.748 34.72 246.788 34.68 246.828 34.64C246.908 34.56 246.988 34.48 247.068 34.44L247.108 34.4C247.148 34.36 247.228 34.32 247.268 34.24C247.468 34.12 247.628 33.96 247.788 33.76C249.588 32 250.868 29.76 251.428 27.2C251.628 26.28 251.748 25.32 251.748 24.32C251.748 24 251.748 23.68 251.708 23.36H229.668V50H233.508V37.6H238.428C238.548 37.6 238.628 37.6 238.708 37.6C238.748 37.6 238.828 37.6 238.868 37.6C238.948 37.6 239.028 37.6 239.068 37.6C239.108 37.6 239.108 37.6 239.148 37.6C239.228 37.6 239.348 37.6 239.468 37.56C239.588 37.56 239.668 37.56 239.788 37.56C239.868 37.52 239.988 37.52 240.068 37.52C240.108 37.52 240.148 37.52 240.188 37.48C240.268 37.48 240.348 37.48 240.428 37.48C240.468 37.44 240.508 37.44 240.548 37.44C240.588 37.44 240.668 37.44 240.748 37.4C240.948 37.36 241.188 37.32 241.428 37.28C241.508 37.24 241.628 37.24 241.708 37.2C241.748 37.2 241.748 37.2 241.788 37.2C241.868 37.16 241.908 37.16 241.988 37.12C242.028 37.12 242.028 37.12 242.028 37.12L242.268 37.48L249.908 50H254.388L246.028 36.28ZM242.188 33C241.028 33.52 239.748 33.76 238.428 33.76H233.508V27.2H247.468C246.988 28.64 246.188 29.96 245.108 31.04C244.228 31.88 243.268 32.56 242.188 33ZM260.315 37.68H277.395V33.84H260.315V29.2H256.475V50H279.995V46.2H260.315V37.68ZM256.475 23.44V27.28H279.995V23.44H256.475Z" fill="#C8D2E0"/>
</g>
<defs>
<clipPath id="clip0_88_337">
<rect width="349.824" height="79" fill="white"/>
</clipPath>
<clipPath id="clip1_88_337">
<rect width="81.3418" height="75" fill="white" transform="translate(4.6582)"/>
</clipPath>
<clipPath id="clip2_88_337">
<rect width="81.3418" height="75" fill="white" transform="translate(4.6582)"/>
</clipPath>
<clipPath id="clip3_88_337">
<rect width="38.3449" height="30.7049" fill="white" transform="translate(26.1567 22.1475)"/>
</clipPath>
<clipPath id="clip4_88_337">
<rect width="38.3449" height="30.7049" fill="white" transform="translate(26.1567 22.1475)"/>
</clipPath>
</defs>
</svg>
