<svg width="313" height="79" viewBox="0 0 313 79" fill="none" xmlns="http://www.w3.org/2000/svg">
<g clip-path="url(#clip0_141_606)">
<g clip-path="url(#clip1_141_606)">
<g clip-path="url(#clip2_141_606)">
<g clip-path="url(#clip3_141_606)">
<g clip-path="url(#clip4_141_606)">
<g clip-path="url(#clip5_141_606)">
<path d="M57.8368 39.7754H44.9015C44.4426 39.7754 44.0706 40.1385 44.0706 40.5863V48.7162C44.0706 49.1639 44.4426 49.527 44.9015 49.527H57.8368C58.2957 49.527 58.6678 49.1639 58.6678 48.7162V40.5866C58.6678 40.1385 58.2957 39.7754 57.8368 39.7754ZM57.0058 47.9057H45.7325V41.3975H57.0054L57.0058 47.9057Z" fill="#FE450D"/>
<path d="M64.2652 30.0376L60.711 26.4976V22.9583C60.711 22.5105 60.339 22.1475 59.8801 22.1475H30.7795C30.3206 22.1475 29.9485 22.5105 29.9485 22.9583V26.4976L26.3943 30.0376C26.242 30.1892 26.1567 30.3927 26.1567 30.6053V33.6914C26.1567 35.2784 27.0242 36.6713 28.3202 37.4424V52.0415C28.3202 52.4893 28.6923 52.8524 29.1512 52.8524H33.3429C33.3472 52.8524 33.3507 52.8513 33.355 52.8513C33.3592 52.8513 33.3627 52.8524 33.367 52.8524C33.8259 52.8524 34.198 52.4893 34.198 52.0415V41.3973H40.1555V52.0415C40.1555 52.4893 40.5276 52.8524 40.9865 52.8524H61.3378C61.7967 52.8524 62.1688 52.4893 62.1688 52.0415V37.5378C63.5582 36.7897 64.5016 35.3461 64.5016 33.6914V30.6053C64.5024 30.3927 64.4171 30.1892 64.2652 30.0376ZM31.6108 23.7696H59.0487V26.018H31.6108V23.7696ZM60.5076 51.2303H41.8182V40.5865C41.8182 40.1387 41.4462 39.7756 40.9873 39.7756H33.3674C32.9085 39.7756 32.5364 40.1387 32.5364 40.5865V51.2307H29.983V38.0324C30.2027 38.065 30.4275 38.0816 30.6566 38.0816C32.1686 38.0816 33.5084 37.3502 34.3251 36.2307C35.1413 37.3502 36.4816 38.0816 37.9936 38.0816C39.5055 38.0816 40.8454 37.3502 41.662 36.2307C42.4783 37.3502 43.8186 38.0816 45.3305 38.0816C46.8425 38.0816 48.1828 37.3502 48.999 36.2307C49.8153 37.3498 51.1555 38.0816 52.6675 38.0816C54.1795 38.0816 55.5194 37.3502 56.336 36.2307C57.1522 37.3502 58.4925 38.0816 60.0045 38.0816C60.175 38.0816 60.3432 38.0714 60.5091 38.0532V51.2303H60.5076ZM62.84 33.691C62.84 35.2175 61.5672 36.4595 60.0029 36.4595C58.4386 36.4595 57.1658 35.2175 57.1658 33.691C57.1658 33.2432 56.7937 32.8802 56.3348 32.8802C55.8759 32.8802 55.5039 33.2432 55.5039 33.691C55.5039 35.2175 54.231 36.4595 52.6667 36.4595C51.1024 36.4595 49.8296 35.2175 49.8296 33.691C49.8296 33.2432 49.4575 32.8802 48.9986 32.8802C48.5397 32.8802 48.1677 33.2432 48.1677 33.691C48.1677 35.2175 46.8948 36.4595 45.3301 36.4595C43.7655 36.4595 42.493 35.2175 42.493 33.691C42.493 33.2432 42.1209 32.8802 41.662 32.8802C41.2031 32.8802 40.8311 33.2432 40.8311 33.691C40.8311 35.2175 39.5582 36.4595 37.994 36.4595C36.4297 36.4595 35.1568 35.2175 35.1568 33.691C35.1568 33.2432 34.7848 32.8802 34.3259 32.8802C33.867 32.8802 33.4949 33.2432 33.4949 33.691C33.4949 35.2175 32.222 36.4595 30.6578 36.4595C29.0935 36.4595 27.8206 35.2175 27.8206 33.691V30.9358L31.1302 27.6394H59.5309L62.8404 30.9358L62.84 33.691Z" fill="#FE450D"/>
</g>
</g>
<path d="M14.6972 25.6401L13.6017 28.9809L7.76012 27.1565L8.85563 23.8158L9.47194 24.0083L8.60006 26.6672L10.5092 27.2634L11.3095 24.8237L11.9259 25.0159L11.1255 27.4559L13.2087 28.1064L14.0809 25.4475L14.6972 25.6401ZM17.6041 16.3964L17.1492 16.0132L19.5748 13.2732L20.0294 13.656L17.6041 16.3964ZM29.1815 3.34436C29.6041 3.14075 30.0963 2.99398 30.6577 2.90403L30.7389 3.59082C30.2081 3.68305 29.7718 3.81131 29.4307 3.97562C29.0497 4.15909 28.7675 4.39387 28.5841 4.67996C28.3978 4.96474 28.3675 5.23199 28.494 5.48203C28.5635 5.61939 28.6683 5.72168 28.8088 5.7889C28.9489 5.85644 29.1056 5.89021 29.2787 5.89119C29.4537 5.89119 29.6467 5.88242 29.8577 5.86488C30.0697 5.84475 30.282 5.81812 30.495 5.78532C30.7069 5.75058 30.9239 5.73402 31.1469 5.73499C31.3665 5.73499 31.5722 5.75155 31.7639 5.78435C31.9549 5.82007 32.1346 5.89963 32.303 6.02302C32.4707 6.14447 32.6068 6.30878 32.7116 6.51596C32.7842 6.65916 32.8324 6.81276 32.8564 6.97707C32.8833 7.14236 32.8773 7.32096 32.8387 7.51287C32.8021 7.70413 32.7306 7.8915 32.6238 8.07529C32.5159 8.25747 32.3579 8.43964 32.1489 8.62213C31.9382 8.8056 31.6833 8.96927 31.3835 9.11377C31.084 9.25827 30.7931 9.36121 30.5106 9.42258C30.2284 9.48396 29.9006 9.52877 29.5276 9.5567L29.4361 8.82769C30.2015 8.7504 30.7705 8.62181 31.1436 8.44191C31.5362 8.25259 31.8164 8.02139 31.9842 7.74797C32.1529 7.4765 32.1718 7.21185 32.0417 6.95434C31.9555 6.78418 31.8264 6.66338 31.6544 6.59194C31.4817 6.51856 31.2883 6.48543 31.0747 6.49225C30.8617 6.5007 30.6321 6.52245 30.3855 6.55687C30.1419 6.59259 29.8953 6.62214 29.646 6.64617C29.3975 6.67183 29.1605 6.6767 28.9349 6.66014C28.7093 6.64358 28.4983 6.57538 28.3019 6.45588C28.1066 6.33801 27.9502 6.16298 27.8327 5.93048C27.7279 5.72363 27.6786 5.50151 27.6846 5.26511C27.6916 5.02579 27.7499 4.79166 27.859 4.56338C27.9678 4.3351 28.1356 4.11331 28.3625 3.89802C28.5911 3.68207 28.864 3.4973 29.1815 3.34436ZM41.7196 0.816362L41.6943 0.185419L46.523 0L46.5483 0.630943L44.499 0.709852L44.7146 6.05907L43.9815 6.08732L43.7659 0.737778L41.7196 0.816362ZM60.1909 2.91215C60.5709 3.05438 60.9 3.25148 61.1776 3.50347C61.4548 3.75741 61.6678 4.04771 61.8169 4.37406C61.9636 4.69976 62.0365 5.06346 62.0348 5.46514C62.0345 5.86975 61.9513 6.28378 61.7849 6.7069C61.5606 7.27744 61.2441 7.7418 60.8355 8.09997C60.4298 8.45685 59.9729 8.67896 59.4648 8.76631C58.9576 8.85626 58.4428 8.80366 57.92 8.60785C57.5772 8.47958 57.2724 8.29611 57.0059 8.05776C56.7386 7.82103 56.5227 7.54144 56.3583 7.21867C56.1959 6.89654 56.1117 6.52278 56.1057 6.09739C56.1014 5.67492 56.1895 5.23264 56.3712 4.77088C56.5416 4.33769 56.7653 3.96686 57.0428 3.65902C57.3203 3.3515 57.6272 3.11932 57.9633 2.96313C58.299 2.80888 58.6584 2.72608 59.0421 2.71471C59.4258 2.70335 59.8085 2.76927 60.1909 2.91215ZM59.9263 3.48626C59.6804 3.39404 59.4275 3.3502 59.1673 3.35475C58.9074 3.35929 58.6485 3.41158 58.3912 3.51159C58.136 3.61258 57.8934 3.78663 57.6634 4.03375C57.4358 4.28152 57.2504 4.58676 57.108 4.94948C56.9709 5.29823 56.8967 5.6405 56.8857 5.97626C56.8754 6.31008 56.9207 6.61045 57.0222 6.87738C57.1233 7.1443 57.2754 7.37811 57.4784 7.57879C57.6807 7.78174 57.9223 7.93599 58.2035 8.04087C58.3955 8.11296 58.5946 8.15518 58.8005 8.16752C59.0059 8.1818 59.2165 8.16135 59.4328 8.10582C59.6488 8.05029 59.8541 7.95937 60.0481 7.83305C60.2445 7.7077 60.4308 7.53235 60.6072 7.30699C60.7832 7.08131 60.9313 6.81666 61.0511 6.51206C61.1723 6.20357 61.2431 5.90547 61.2641 5.61712C61.2841 5.33103 61.2621 5.07645 61.1982 4.85368C61.132 4.62995 61.0345 4.4257 60.9057 4.24125C60.7766 4.05648 60.6302 3.90224 60.4654 3.77819C60.298 3.65544 60.1183 3.55803 59.9263 3.48626ZM74.2878 14.9036C74.1404 15.0439 73.9843 15.1595 73.8189 15.2508C73.6532 15.342 73.4741 15.4086 73.2811 15.4505C73.0898 15.4911 72.8864 15.4888 72.6711 15.4433C72.4555 15.4011 72.2415 15.3138 72.0289 15.1816L71.353 18.1876L70.7806 17.6151L71.4478 14.7121L70.6179 13.8824L68.7889 15.6242L68.2744 15.1098L72.6635 10.929L74.2379 12.5029C74.3104 12.5754 74.373 12.6426 74.4252 12.7043C74.4808 12.766 74.5447 12.8514 74.6169 12.9608C74.6908 13.0686 74.749 13.1715 74.7916 13.2696C74.8309 13.368 74.8585 13.4849 74.8741 13.621C74.8928 13.7574 74.8864 13.8898 74.8548 14.0194C74.8235 14.1487 74.76 14.2909 74.6641 14.4455C74.5716 14.6 74.4462 14.7526 74.2878 14.9036ZM72.7174 11.8824L71.0811 13.4411L71.8205 14.1805C71.9227 14.2824 72.0162 14.3698 72.1014 14.4425C72.1879 14.514 72.2998 14.587 72.4365 14.662C72.5733 14.7367 72.7051 14.7819 72.8315 14.7971C72.958 14.8124 73.1001 14.7936 73.2572 14.7403C73.4142 14.687 73.5673 14.5896 73.7161 14.448C73.8205 14.3484 73.9024 14.2448 73.9616 14.137C74.0192 14.0308 74.0548 13.9321 74.0685 13.8405C74.0838 13.7476 74.0818 13.6531 74.0628 13.5567C74.0435 13.4602 74.0172 13.3752 73.9836 13.3014C73.9503 13.2277 73.9064 13.1517 73.8528 13.0732C73.7989 12.9946 73.752 12.9322 73.7121 12.8858C73.6735 12.8413 73.6292 12.7942 73.5799 12.7445L72.7174 11.8824ZM77.2778 29.5758L75.9953 26.2989L81.7251 24.1635L83.0076 27.4403L82.4029 27.6657L81.3823 25.0575L79.5094 25.7553L80.4462 28.1486L79.8415 28.3739L78.9048 25.9807L76.8615 26.7422L77.8825 29.3504L77.2778 29.5758ZM10.633 52.5628L9.52452 49.1889L15.4254 47.3428L16.5339 50.7171L15.9112 50.9116L15.0287 48.2254L13.1006 48.8284L13.9102 51.2928L13.2876 51.4876L12.4779 49.0233L10.3731 49.6818L11.2556 52.368L10.633 52.5628ZM18.2247 59.9533L18.6816 59.5678L21.1335 62.3371L20.6766 62.7225L18.2247 59.9533ZM32.8011 66.4033C33.2274 66.6088 33.65 66.903 34.0684 67.2852L33.5555 67.7714C33.1542 67.4142 32.7808 67.1521 32.4357 66.9855C32.0507 66.8001 31.6843 66.7222 31.3362 66.7517C30.9878 66.7813 30.7502 66.9219 30.6228 67.1735C30.5512 67.3148 30.5316 67.4606 30.5639 67.6113C30.5935 67.7626 30.6614 67.9061 30.7678 68.0419C30.8733 68.1795 30.9998 68.3247 31.1469 68.4776C31.2913 68.6316 31.4424 68.7813 31.6005 68.9274C31.7582 69.0735 31.9056 69.2336 32.0421 69.4077C32.1795 69.5801 32.292 69.7522 32.3798 69.9246C32.4687 70.0951 32.5143 70.2834 32.5163 70.489C32.5173 70.6965 32.4654 70.904 32.3602 71.1112C32.2867 71.2563 32.1905 71.3904 32.0713 71.5135C31.9512 71.634 31.8008 71.7382 31.6201 71.8272C31.4394 71.9158 31.2407 71.974 31.0241 72.0022C30.8098 72.0311 30.5615 72.0188 30.2803 71.9649C30.0011 71.9123 29.7106 71.8129 29.4091 71.6678C29.1076 71.5223 28.844 71.358 28.6188 71.1745C28.3961 70.9901 28.1579 70.7608 27.9043 70.4867L28.4527 69.9672C28.9825 70.5192 29.4371 70.8865 29.8161 71.069C30.2108 71.2592 30.5728 71.3365 30.9023 71.3002C31.2284 71.2648 31.4574 71.1177 31.5888 70.8582C31.676 70.6858 31.696 70.5101 31.6487 70.3309C31.6011 70.1513 31.5099 69.9808 31.3745 69.8191C31.2371 69.6567 31.0787 69.4898 30.8986 69.3187C30.7206 69.1485 30.5452 68.9738 30.3722 68.7939C30.1971 68.6131 30.0484 68.4296 29.9256 68.2425C29.8001 68.0568 29.7259 67.8499 29.7029 67.6223C29.6793 67.3966 29.7266 67.1664 29.8454 66.9323C29.9512 66.7231 30.1036 66.5488 30.3029 66.4088C30.503 66.2669 30.7306 66.1682 30.9858 66.113C31.2407 66.0578 31.5269 66.0536 31.8437 66.1003C32.1605 66.1474 32.4797 66.2481 32.8011 66.4033ZM41.9499 69.4866L41.9759 68.8491L46.8544 69.0384L46.8285 69.6759L44.7589 69.5957L44.5386 75.0001L43.7992 74.9712L44.0195 69.5668L41.9499 69.4866ZM57.2508 66.5257C57.6351 66.3822 58.0192 66.3137 58.4032 66.3205C58.7876 66.3273 59.1476 66.4056 59.4834 66.5553C59.8205 66.702 60.1283 66.928 60.4069 67.2333C60.6844 67.5366 60.907 67.9019 61.0748 68.3292C61.301 68.906 61.3846 69.4632 61.3253 70.0009C61.2681 70.5377 61.0788 71.0063 60.757 71.406C60.4362 71.808 60.0122 72.1074 59.4851 72.3042C59.138 72.4338 58.7816 72.4974 58.4158 72.4955C58.0524 72.4926 57.6974 72.424 57.351 72.2899C57.0065 72.1548 56.6847 71.9295 56.3856 71.6135C56.0864 71.2976 55.8451 70.9066 55.6624 70.4409C55.491 70.0032 55.4032 69.5772 55.3992 69.1625C55.3952 68.7478 55.4658 68.3715 55.6102 68.0331C55.7553 67.6967 55.9686 67.3976 56.2495 67.1352C56.5307 66.8732 56.8641 66.6699 57.2508 66.5257ZM57.4491 67.1313C57.2012 67.2239 56.9812 67.358 56.7896 67.5337C56.5949 67.708 56.4365 67.9175 56.3143 68.1617C56.1912 68.4091 56.129 68.7004 56.128 69.0362C56.127 69.3716 56.1989 69.7239 56.3433 70.0928C56.4811 70.4439 56.6621 70.7485 56.8867 71.0066C57.109 71.2657 57.3509 71.4622 57.6119 71.596C57.8727 71.7298 58.149 71.8058 58.4405 71.8239C58.732 71.8421 59.0202 71.7983 59.3054 71.6918C59.4997 71.619 59.6787 71.52 59.8425 71.394C60.0072 71.27 60.1503 71.116 60.2724 70.9316C60.3965 70.7465 60.4894 70.5419 60.5506 70.3179C60.6109 70.0967 60.6285 69.8428 60.6035 69.5561C60.5816 69.2706 60.51 68.9738 60.3892 68.665C60.2664 68.3526 60.1134 68.0828 59.9293 67.8555C59.747 67.6256 59.554 67.4479 59.351 67.3226C59.1476 67.1972 58.934 67.1083 58.7094 67.0557C58.4844 67.0011 58.2671 66.9816 58.0578 66.9975C57.8461 67.0141 57.6435 67.0586 57.4491 67.1313ZM70.955 58.7989C71.1037 58.9408 71.2275 59.0921 71.3264 59.2528C71.4255 59.4136 71.4977 59.5883 71.5437 59.7773C71.5913 59.9643 71.5952 60.1643 71.5553 60.377C71.5141 60.5913 71.4282 60.8037 71.2974 61.0141L74.4235 61.6142L73.8458 62.1909L70.8255 61.6012L69.9879 62.4371L71.8342 64.1987L71.3121 64.7196L66.8814 60.4926L68.4731 58.9037C68.546 58.8313 68.6139 58.768 68.6774 58.7138C68.7393 58.6582 68.8255 58.5923 68.9357 58.5163C69.0475 58.442 69.154 58.3835 69.2551 58.341C69.3566 58.2988 69.4758 58.2676 69.6132 58.2478C69.754 58.228 69.8924 58.2319 70.0289 58.2592C70.1623 58.2868 70.3107 58.3455 70.4744 58.4352C70.6352 58.5251 70.7952 58.6462 70.955 58.7989ZM67.8688 60.4153L69.5204 61.9912L70.2675 61.2453C70.3713 61.1421 70.4591 61.0479 70.5317 60.9632C70.6029 60.8768 70.6758 60.7654 70.751 60.6287C70.8245 60.4903 70.8675 60.3595 70.8801 60.2354C70.8944 60.1101 70.8718 59.9708 70.8119 59.8172C70.7523 59.6636 70.6472 59.5152 70.4971 59.3717C70.3909 59.2707 70.2821 59.1924 70.1703 59.1372C70.0601 59.0833 69.9573 59.0502 69.8618 59.0375C69.7646 59.0265 69.6661 59.0304 69.5663 59.0499C69.4678 59.071 69.3813 59.0986 69.3067 59.133C69.2289 59.1674 69.151 59.2126 69.0734 59.2684C68.9929 59.3243 68.9294 59.3723 68.8828 59.4123C68.8362 59.4525 68.7883 59.4973 68.7387 59.5467L67.8688 60.4153ZM81.2805 48.8086L79.981 52.117L74.1949 49.9533L75.4941 46.6447L76.1048 46.8733L75.0701 49.5071L76.9607 50.2141L77.9097 47.7978L78.5204 48.0261L77.5713 50.4423L79.6355 51.2142L80.6698 48.5804L81.2805 48.8086ZM7.65063 38.4408C7.65063 37.1653 8.71054 36.131 10.018 36.131C11.3252 36.131 12.3851 37.1653 12.3851 38.4408C12.3851 39.7166 11.3252 40.7506 10.018 40.7506C8.71054 40.7506 7.65063 39.7166 7.65063 38.4408ZM78.176 38.4408C78.176 37.1653 79.2359 36.131 80.5434 36.131C81.8505 36.131 82.9104 37.1653 82.9104 38.4408C82.9104 39.7166 81.8505 40.7506 80.5434 40.7506C79.2359 40.7506 78.176 39.7166 78.176 38.4408Z" fill="#FE450D"/>
</g>
</g>
<path d="M110.822 37.68H127.902V33.84H110.822V29.2H106.982V50H130.502V46.2H110.822V37.68ZM106.982 23.44V27.28H130.502V23.44H106.982ZM134.355 38V34.2H143.275V38H134.355ZM143.155 34.32H134.475V37.88H143.155V34.32ZM134.355 34.2V38H143.275V34.2H134.355ZM162.969 34.8H155.369C155.169 34.8 154.929 34.8 154.729 34.8C154.569 34.8 154.449 34.8 154.329 34.8C152.409 34.6 150.929 33 150.929 31.04C150.929 28.96 152.609 27.28 154.689 27.28H163.129C165.089 27.36 166.649 28.88 166.769 30.84H170.609C170.569 29.56 170.209 28.32 169.609 27.28C169.609 27.28 169.609 27.28 169.569 27.28C168.289 25.04 165.929 23.52 163.169 23.44C163.089 23.44 163.049 23.44 162.969 23.44C162.929 23.44 162.849 23.44 162.769 23.44H154.689C151.889 23.44 149.409 25 148.089 27.28C147.449 28.4 147.089 29.68 147.089 31.04C147.089 32.4 147.449 33.72 148.089 34.8C148.409 35.36 148.809 35.88 149.249 36.32C150.609 37.76 152.569 38.64 154.689 38.64H162.969C165.049 38.64 166.769 40.32 166.769 42.4C166.769 44.48 165.049 46.2 162.969 46.2H154.729C152.689 46.2 151.049 44.6 150.929 42.6H147.089C147.129 43.92 147.489 45.12 148.089 46.2C149.409 48.48 151.889 50 154.729 50H162.969C165.809 50 168.289 48.48 169.609 46.2C170.209 45.08 170.609 43.8 170.609 42.4C170.609 41.04 170.209 39.76 169.609 38.64C168.289 36.36 165.809 34.8 162.969 34.8ZM187.954 50V29.2H184.114V50H187.954ZM198.114 27.28V23.44H174.394V27.28H198.114ZM212.597 27.24C217.797 27.24 222.037 31.52 222.037 36.72C222.037 41.96 217.797 46.2 212.597 46.2C207.357 46.2 203.117 41.96 203.117 36.72C203.117 31.52 207.357 27.24 212.597 27.24ZM199.277 36.72C199.277 44.08 205.237 50 212.597 50C219.917 50 225.877 44.08 225.877 36.72C225.877 29.36 219.917 23.44 212.597 23.44C205.237 23.44 199.277 29.36 199.277 36.72ZM246.027 36.28L245.547 35.56C245.587 35.52 245.627 35.52 245.627 35.48C245.667 35.48 245.667 35.48 245.667 35.48C245.747 35.44 245.827 35.4 245.867 35.32H245.907C245.947 35.28 246.027 35.24 246.107 35.2C246.267 35.08 246.427 34.96 246.547 34.84C246.587 34.84 246.627 34.8 246.667 34.76C246.747 34.72 246.787 34.68 246.827 34.64C246.907 34.56 246.987 34.48 247.067 34.44L247.107 34.4C247.147 34.36 247.227 34.32 247.267 34.24C247.467 34.12 247.627 33.96 247.787 33.76C249.587 32 250.867 29.76 251.427 27.2C251.627 26.28 251.747 25.32 251.747 24.32C251.747 24 251.747 23.68 251.707 23.36H229.667V50H233.507V37.6H238.427C238.547 37.6 238.627 37.6 238.707 37.6C238.747 37.6 238.827 37.6 238.867 37.6C238.947 37.6 239.027 37.6 239.067 37.6C239.107 37.6 239.107 37.6 239.147 37.6C239.227 37.6 239.347 37.6 239.467 37.56C239.587 37.56 239.667 37.56 239.787 37.56C239.867 37.52 239.987 37.52 240.067 37.52C240.107 37.52 240.147 37.52 240.187 37.48C240.267 37.48 240.347 37.48 240.427 37.48C240.467 37.44 240.507 37.44 240.547 37.44C240.587 37.44 240.667 37.44 240.747 37.4C240.947 37.36 241.187 37.32 241.427 37.28C241.507 37.24 241.627 37.24 241.707 37.2C241.747 37.2 241.747 37.2 241.787 37.2C241.867 37.16 241.907 37.16 241.987 37.12C242.027 37.12 242.027 37.12 242.027 37.12L242.267 37.48L249.907 50H254.387L246.027 36.28ZM242.187 33C241.027 33.52 239.747 33.76 238.427 33.76H233.507V27.2H247.467C246.987 28.64 246.187 29.96 245.107 31.04C244.227 31.88 243.267 32.56 242.187 33ZM260.315 37.68H277.395V33.84H260.315V29.2H256.475V50H279.995V46.2H260.315V37.68ZM256.475 23.44V27.28H279.995V23.44H256.475Z" fill="#1F2937"/>
</g>
</g>
<defs>
<clipPath id="clip0_141_606">
<rect width="313" height="79" fill="white"/>
</clipPath>
<clipPath id="clip1_141_606">
<rect width="349.824" height="79" fill="white"/>
</clipPath>
<clipPath id="clip2_141_606">
<rect width="81.3418" height="75" fill="white" transform="translate(4.6582)"/>
</clipPath>
<clipPath id="clip3_141_606">
<rect width="81.3418" height="75" fill="white" transform="translate(4.6582)"/>
</clipPath>
<clipPath id="clip4_141_606">
<rect width="38.3449" height="30.7049" fill="white" transform="translate(26.1567 22.1475)"/>
</clipPath>
<clipPath id="clip5_141_606">
<rect width="38.3449" height="30.7049" fill="white" transform="translate(26.1567 22.1475)"/>
</clipPath>
</defs>
</svg>
